<svg width="16" height="19" viewBox="0 0 16 19" fill="none" xmlns="http://www.w3.org/2000/svg">
<path d="M6.6025 12.8725L11.97 7.505L10.6163 6.15125L6.6025 10.165L4.6075 8.17L3.25375 9.52375L6.6025 12.8725V12.8725M7.6 19C5.39917 18.4458 3.58229 17.1831 2.14938 15.2119C0.716458 13.2406 0 11.0517 0 8.645V2.85L7.6 0L15.2 2.85V8.645C15.2 11.0517 14.4835 13.2406 13.0506 15.2119C11.6177 17.1831 9.80083 18.4458 7.6 19V19M7.6 17.005C9.24667 16.4825 10.6083 15.4375 11.685 13.87C12.7617 12.3025 13.3 10.5608 13.3 8.645V4.15625L7.6 2.01875L1.9 4.15625V8.645C1.9 10.5608 2.43833 12.3025 3.515 13.87C4.59167 15.4375 5.95333 16.4825 7.6 17.005V17.005M7.6 9.5V9.5V9.5V9.5V9.5V9.5V9.5V9.5V9.5V9.5" fill="#454652"/>
</svg>
