<svg width="25" height="20" viewBox="0 0 25 20" fill="none" xmlns="http://www.w3.org/2000/svg">
<path d="M12.5 12.5V12.5V12.5V12.5V12.5V12.5V12.5V12.5V12.5V12.5V12.5V12.5V12.5V12.5V12.5V12.5V12.5V12.5M0 20V7.5C0 6.8125 0.244792 6.22396 0.734375 5.73438C1.22396 5.24479 1.8125 5 2.5 5H6.25V2.5C6.25 1.8125 6.49479 1.22396 6.98438 0.734375C7.47396 0.244792 8.0625 0 8.75 0H16.25C16.9375 0 17.526 0.244792 18.0156 0.734375C18.5052 1.22396 18.75 1.8125 18.75 2.5V5H22.5C23.1875 5 23.776 5.24479 24.2656 5.73438C24.7552 6.22396 25 6.8125 25 7.5V20H0V20M7.5 13.75V15H5V13.75H2.5V17.5H22.5V13.75H20V15H17.5V13.75H7.5V13.75M2.5 7.5V11.25H5V10H7.5V11.25H17.5V10H20V11.25H22.5V7.5V7.5V7.5H2.5V7.5V7.5V7.5M8.75 5H16.25V2.5V2.5V2.5H8.75V2.5V2.5V5V5" fill="#2F42A6"/>
</svg>
