<svg width="19" height="19" viewBox="0 0 19 19" fill="none" xmlns="http://www.w3.org/2000/svg">
<path d="M2.85 19C2.3275 19 1.88021 18.814 1.50812 18.4419C1.13604 18.0698 0.95 17.6225 0.95 17.1V6.38875C0.665 6.21458 0.435417 5.98896 0.26125 5.71187C0.0870833 5.43479 0 5.11417 0 4.75V1.9C0 1.3775 0.186042 0.930208 0.558125 0.558125C0.930208 0.186042 1.3775 0 1.9 0H17.1C17.6225 0 18.0698 0.186042 18.4419 0.558125C18.814 0.930208 19 1.3775 19 1.9V4.75C19 5.11417 18.9129 5.43479 18.7388 5.71187C18.5646 5.98896 18.335 6.21458 18.05 6.38875V17.1C18.05 17.6225 17.864 18.0698 17.4919 18.4419C17.1198 18.814 16.6725 19 16.15 19H2.85V19M2.85 6.65V17.1V17.1V17.1H16.15V17.1V17.1V6.65H2.85V6.65M1.9 4.75H17.1V4.75V4.75V1.9V1.9V1.9H1.9V1.9V1.9V4.75V4.75V4.75V4.75M6.65 11.4H12.35V9.5H6.65V11.4V11.4M9.5 11.875V11.875V11.875V11.875V11.875V11.875V11.875V11.875V11.875V11.875" fill="#454652"/>
</svg>
